<svg width="58" height="90" viewBox="0 0 58 90" fill="none" xmlns="http://www.w3.org/2000/svg">
<path d="M29.0009 35L21.3649 27.6694C20.7558 27.0846 20.3498 26.4048 20.1467 25.6299C19.9486 24.855 19.9511 24.0849 20.1542 23.3195C20.3572 22.5493 20.7608 21.879 21.3649 21.3085C21.9839 20.7238 22.6896 20.3363 23.4819 20.1462C24.2792 19.9513 25.074 19.9513 25.8663 20.1462C26.6636 20.3411 27.3717 20.7285 27.9907 21.3085L29.0009 22.2498L30.0112 21.3085C30.6351 20.7285 31.3432 20.3411 32.1356 20.1462C32.9279 19.9513 33.7202 19.9513 34.5125 20.1462C35.3098 20.3363 36.018 20.7238 36.637 21.3085C37.2411 21.879 37.6447 22.5493 37.8477 23.3195C38.0508 24.0849 38.0508 24.855 37.8477 25.6299C37.6496 26.4048 37.2461 27.0846 36.637 27.6694L29.0009 35Z" stroke="black" stroke-opacity="0.6" stroke-width="2"/>
<path d="M29.0009 70L21.3649 62.6694C20.7558 62.0846 20.3498 61.4048 20.1467 60.6299C19.9486 59.855 19.9511 59.0849 20.1542 58.3195C20.3572 57.5493 20.7608 56.879 21.3649 56.3085C21.9839 55.7238 22.6896 55.3363 23.4819 55.1462C24.2792 54.9513 25.074 54.9513 25.8663 55.1462C26.6636 55.3411 27.3717 55.7285 27.9907 56.3085L29.0009 57.2498L30.0112 56.3085C30.6351 55.7285 31.3432 55.3411 32.1356 55.1462C32.9279 54.9513 33.7202 54.9513 34.5125 55.1462C35.3098 55.3363 36.018 55.7238 36.637 56.3085C37.2411 56.879 37.6447 57.5493 37.8477 58.3195C38.0508 59.0849 38.0508 59.855 37.8477 60.6299C37.6496 61.4048 37.2461 62.0846 36.637 62.6694L29.0009 70Z" fill="black" stroke="black" stroke-width="2"/>
<rect x="0.5" y="0.5" width="57" height="89" rx="4.5" stroke="#9747FF" stroke-dasharray="10 5"/>
</svg>
